<svg width="71" height="70" viewBox="0 0 71 70" fill="none" xmlns="http://www.w3.org/2000/svg">
    <path d="M45.7083 37.9167C56.1787 37.9167 64.6667 35.305 64.6667 32.0833C64.6667 28.8617 56.1787 26.25 45.7083 26.25C35.2379 26.25 26.75 28.8617 26.75 32.0833C26.75 35.305 35.2379 37.9167 45.7083 37.9167Z" stroke="#E0E0E0" stroke-width="3"/>
    <path d="M64.6667 45.208C64.6667 48.4298 56.1789 51.0413 45.7083 51.0413C35.2378 51.0413 26.75 48.4298 26.75 45.208" stroke="#E0E0E0" stroke-width="3"/>
    <path d="M64.6667 32.083V57.7497C64.6667 61.2934 56.1789 64.1663 45.7083 64.1663C35.2378 64.1663 26.75 61.2934 26.75 57.7497V32.083" stroke="#E0E0E0" stroke-width="3"/>
    <path d="M25.2917 17.4997C35.7621 17.4997 44.25 14.888 44.25 11.6663C44.25 8.44468 35.7621 5.83301 25.2917 5.83301C14.8213 5.83301 6.33337 8.44468 6.33337 11.6663C6.33337 14.888 14.8213 17.4997 25.2917 17.4997Z" stroke="#E0E0E0" stroke-width="3"/>
    <path d="M18 32.0833C12.4823 31.4119 7.41228 29.6756 6.33337 26.25M18 46.6667C12.4823 45.9952 7.41228 44.259 6.33337 40.8333" stroke="#E0E0E0" stroke-width="3" stroke-linecap="round"/>
    <path d="M18 61.2503C12.4823 60.5789 7.41228 58.8426 6.33337 55.417V11.667" stroke="#E0E0E0" stroke-width="3" stroke-linecap="round"/>
    <path d="M44.25 17.5003V11.667" stroke="#E0E0E0" stroke-width="3" stroke-linecap="round"/>
</svg>
