<svg width="71" height="70" viewBox="0 0 71 70" fill="none" xmlns="http://www.w3.org/2000/svg">
    <path d="M49.9381 24.2617C50.6609 22.4176 48.6469 20.2049 44.6193 15.7795C40.3712 11.112 38.1834 8.77797 35.4998 8.75C32.8161 8.77797 30.6283 11.112 26.3802 15.7795C22.3525 20.2049 20.3387 22.4176 21.0612 24.2617C21.0875 24.329 21.1162 24.3954 21.1471 24.4607C21.9351 26.1274 24.547 26.2416 29.6664 26.2494V45.2083C29.6664 46.5646 29.6664 47.2427 29.8155 47.7989C30.22 49.3089 31.3992 50.4881 32.9092 50.8926C33.4654 51.0417 34.1435 51.0417 35.4998 51.0417C36.8557 51.0417 37.5338 51.0417 38.0903 50.8926C39.6 50.4881 40.7792 49.3089 41.1838 47.7989C41.3328 47.2427 41.3328 46.5646 41.3328 45.2083V26.2494C46.4524 26.2416 49.0643 26.1274 49.8524 24.4607C49.8833 24.3954 49.9119 24.329 49.9381 24.2617Z" fill="#E0E0E0" stroke="#E0E0E0" stroke-width="1.5" stroke-linecap="round" stroke-linejoin="round"/>
    <path d="M15.0833 61.25H55.9167" stroke="#E0E0E0" stroke-width="1.5" stroke-linecap="round" stroke-linejoin="round"/>
</svg>
