<svg width="20" height="23" viewBox="0 0 20 23" fill="none" xmlns="http://www.w3.org/2000/svg">
    <mask id="path-1-inside-1_0_1" fill="white">
        <path d="M19.021 13.6729C19.0226 12.8946 18.8361 12.1283 18.4786 11.4438C18.1212 10.7593 17.6041 10.1785 16.9745 9.75411C16.345 9.32977 15.6229 9.07547 14.8742 9.01439C14.1255 8.9533 13.374 9.08738 12.6881 9.40441C12.0022 9.72143 11.4038 10.2113 10.9474 10.8294C10.491 11.4475 10.1911 12.1741 10.0751 12.9431C9.95906 13.7121 10.0306 14.4989 10.2832 15.2319C10.5357 15.9648 10.9613 16.6206 11.521 17.1395V23L14.521 21.5279L17.521 23V17.1395C17.9926 16.7038 18.3699 16.1697 18.6284 15.5723C18.8869 14.9749 19.0207 14.3277 19.021 13.6729ZM16.021 20.5439L14.521 19.8078L13.021 20.5439V18.0644C13.9905 18.4265 15.0516 18.4265 16.021 18.0644V20.5439ZM14.521 16.782C13.9277 16.782 13.3477 16.5996 12.8543 16.258C12.361 15.9164 11.9765 15.4308 11.7494 14.8627C11.5223 14.2946 11.4629 13.6695 11.5787 13.0664C11.6944 12.4633 11.9802 11.9093 12.3997 11.4745C12.8193 11.0397 13.3538 10.7436 13.9358 10.6237C14.5177 10.5037 15.1209 10.5653 15.6691 10.8006C16.2173 11.0359 16.6858 11.4344 17.0155 11.9457C17.3451 12.4569 17.521 13.058 17.521 13.6729C17.5201 14.4972 17.2037 15.2874 16.6413 15.8702C16.0789 16.4531 15.3164 16.7809 14.521 16.782Z"/>
    </mask>
    <path d="M19.021 13.6729C19.0226 12.8946 18.8361 12.1283 18.4786 11.4438C18.1212 10.7593 17.6041 10.1785 16.9745 9.75411C16.345 9.32977 15.6229 9.07547 14.8742 9.01439C14.1255 8.9533 13.374 9.08738 12.6881 9.40441C12.0022 9.72143 11.4038 10.2113 10.9474 10.8294C10.491 11.4475 10.1911 12.1741 10.0751 12.9431C9.95906 13.7121 10.0306 14.4989 10.2832 15.2319C10.5357 15.9648 10.9613 16.6206 11.521 17.1395V23L14.521 21.5279L17.521 23V17.1395C17.9926 16.7038 18.3699 16.1697 18.6284 15.5723C18.8869 14.9749 19.0207 14.3277 19.021 13.6729ZM16.021 20.5439L14.521 19.8078L13.021 20.5439V18.0644C13.9905 18.4265 15.0516 18.4265 16.021 18.0644V20.5439ZM14.521 16.782C13.9277 16.782 13.3477 16.5996 12.8543 16.258C12.361 15.9164 11.9765 15.4308 11.7494 14.8627C11.5223 14.2946 11.4629 13.6695 11.5787 13.0664C11.6944 12.4633 11.9802 11.9093 12.3997 11.4745C12.8193 11.0397 13.3538 10.7436 13.9358 10.6237C14.5177 10.5037 15.1209 10.5653 15.6691 10.8006C16.2173 11.0359 16.6858 11.4344 17.0155 11.9457C17.3451 12.4569 17.521 13.058 17.521 13.6729C17.5201 14.4972 17.2037 15.2874 16.6413 15.8702C16.0789 16.4531 15.3164 16.7809 14.521 16.782Z" fill="white"/>
    <path d="M19.021 13.6729L17.021 13.669L17.021 13.6719L19.021 13.6729ZM11.521 17.1395H13.521V16.2663L12.8807 15.6727L11.521 17.1395ZM11.521 23H9.52105V26.2092L12.4021 24.7955L11.521 23ZM14.521 21.5279L15.4021 19.7324L14.521 19.3001L13.64 19.7324L14.521 21.5279ZM17.521 23L16.64 24.7955L19.521 26.2092V23H17.521ZM17.521 17.1395L16.1636 15.6707L15.521 16.2645V17.1395H17.521ZM16.021 20.5439L15.14 22.3394L18.021 23.7531V20.5439H16.021ZM14.521 19.8078L15.4021 18.0123L14.521 17.58L13.64 18.0123L14.521 19.8078ZM13.021 20.5439H11.021V23.7531L13.9021 22.3394L13.021 20.5439ZM13.021 18.0644L13.7207 16.1908L11.021 15.1827V18.0644H13.021ZM16.021 18.0644H18.021V15.1827L15.3214 16.1908L16.021 18.0644ZM14.521 16.782V18.782L14.5236 18.782L14.521 16.782ZM17.521 13.6729L19.521 13.6754V13.6729H17.521ZM19.021 13.6729L21.021 13.6768C21.0232 12.5775 20.76 11.4918 20.2515 10.518L18.4786 11.4438L16.7058 12.3696C16.9122 12.7648 17.0219 13.2118 17.0211 13.669L19.021 13.6729ZM18.4786 11.4438L20.2515 10.518C19.7427 9.54391 19.0027 8.70924 18.0924 8.09567L16.9745 9.75411L15.8567 11.4126C16.2055 11.6477 16.4996 11.9748 16.7058 12.3696L18.4786 11.4438ZM16.9745 9.75411L18.0924 8.09567C17.1816 7.48177 16.1312 7.11029 15.0369 7.02101L14.8742 9.01439L14.7116 11.0078C15.1146 11.0406 15.5084 11.1778 15.8567 11.4126L16.9745 9.75411ZM14.8742 9.01439L15.0369 7.02101C13.9424 6.93171 12.8459 7.12815 11.849 7.58895L12.6881 9.40441L13.5272 11.2199C13.902 11.0466 14.3087 10.9749 14.7116 11.0078L14.8742 9.01439ZM12.6881 9.40441L11.849 7.58895C10.8525 8.04953 9.99114 8.7575 9.33848 9.64136L10.9474 10.8294L12.5563 12.0174C12.8164 11.6651 13.1519 11.3933 13.5272 11.2199L12.6881 9.40441ZM10.9474 10.8294L9.33848 9.64136C8.68611 10.5248 8.26147 11.5577 8.09746 12.6447L10.0751 12.9431L12.0527 13.2415C12.1207 12.7906 12.2958 12.3701 12.5563 12.0174L10.9474 10.8294ZM10.0751 12.9431L8.09746 12.6447C7.93347 13.7316 8.03426 14.8444 8.39226 15.8834L10.2832 15.2319L12.174 14.5803C12.0269 14.1533 11.9847 13.6925 12.0527 13.2415L10.0751 12.9431ZM10.2832 15.2319L8.39226 15.8834C8.75034 16.9226 9.35623 17.8599 10.1614 18.6063L11.521 17.1395L12.8807 15.6727C12.5663 15.3814 12.3211 15.007 12.174 14.5803L10.2832 15.2319ZM11.521 17.1395H9.52105V23H11.521H13.521V17.1395H11.521ZM11.521 23L12.4021 24.7955L15.4021 23.3234L14.521 21.5279L13.64 19.7324L10.64 21.2045L11.521 23ZM14.521 21.5279L13.64 23.3234L16.64 24.7955L17.521 23L18.4021 21.2045L15.4021 19.7324L14.521 21.5279ZM17.521 23H19.521V17.1395H17.521H15.521V23H17.521ZM17.521 17.1395L18.8785 18.6083C19.5575 17.9808 20.0964 17.216 20.4639 16.3666L18.6284 15.5723L16.7929 14.7781C16.6435 15.1234 16.4276 15.4267 16.1636 15.6707L17.521 17.1395ZM18.6284 15.5723L20.4639 16.3666C20.8315 15.5172 21.0206 14.5999 21.021 13.674L19.021 13.6729L17.021 13.6719C17.0209 14.0554 16.9424 14.4326 16.7929 14.7781L18.6284 15.5723ZM16.021 20.5439L16.9021 18.7484L15.4021 18.0123L14.521 19.8078L13.64 21.6033L15.14 22.3394L16.021 20.5439ZM14.521 19.8078L13.64 18.0123L12.14 18.7484L13.021 20.5439L13.9021 22.3394L15.4021 21.6033L14.521 19.8078ZM13.021 20.5439H15.021V18.0644H13.021H11.021V20.5439H13.021ZM13.021 18.0644L12.3214 19.9381C13.7421 20.4686 15.3 20.4686 16.7207 19.9381L16.021 18.0644L15.3214 16.1908C14.8031 16.3843 14.239 16.3843 13.7207 16.1908L13.021 18.0644ZM16.021 18.0644H14.021V20.5439H16.021H18.021V18.0644H16.021ZM14.521 16.782V14.782C14.3395 14.782 14.1558 14.7265 13.9929 14.6137L12.8543 16.258L11.7157 17.9023C12.5395 18.4727 13.5159 18.782 14.521 18.782V16.782ZM12.8543 16.258L13.9929 14.6137C13.8291 14.5003 13.6909 14.3314 13.6066 14.1204L11.7494 14.8627L9.89226 15.605C10.2621 16.5302 10.8929 17.3325 11.7157 17.9023L12.8543 16.258ZM11.7494 14.8627L13.6066 14.1204C13.522 13.9089 13.4989 13.6723 13.5428 13.4434L11.5787 13.0664L9.61455 12.6894C9.42698 13.6667 9.52266 14.6803 9.89226 15.605L11.7494 14.8627ZM11.5787 13.0664L13.5428 13.4434C13.5867 13.2147 13.6934 13.0141 13.839 12.8633L12.3997 11.4745L10.9605 10.0858C10.2669 10.8046 9.80217 11.7119 9.61455 12.6894L11.5787 13.0664ZM12.3997 11.4745L13.839 12.8633C13.9837 12.7133 14.1594 12.6196 14.3396 12.5825L13.9358 10.6237L13.532 8.66486C12.5483 8.86764 11.6548 9.36622 10.9605 10.0858L12.3997 11.4745ZM13.9358 10.6237L14.3396 12.5825C14.5192 12.5455 14.7062 12.5638 14.8802 12.6384L15.6691 10.8006L16.458 8.96277C15.5356 8.5668 14.5162 8.46197 13.532 8.66486L13.9358 10.6237ZM15.6691 10.8006L14.8802 12.6384C15.055 12.7135 15.216 12.8456 15.3345 13.0294L17.0155 11.9457L18.6964 10.8619C18.1556 10.0232 17.3795 9.35835 16.458 8.96277L15.6691 10.8006ZM17.0155 11.9457L15.3345 13.0294C15.4535 13.2139 15.521 13.438 15.521 13.6729H17.521H19.521C19.521 12.678 19.2367 11.7 18.6964 10.8619L17.0155 11.9457ZM17.521 13.6729L15.521 13.6705C15.5207 13.9877 15.3983 14.2781 15.2021 14.4815L16.6413 15.8702L18.0805 17.259C19.0091 16.2967 19.5194 15.0066 19.521 13.6754L17.521 13.6729ZM16.6413 15.8702L15.2021 14.4815C15.0082 14.6824 14.7608 14.7817 14.5185 14.782L14.521 16.782L14.5236 18.782C15.872 18.7802 17.1496 18.2237 18.0805 17.259L16.6413 15.8702Z" fill="white" mask="url(#path-1-inside-1_0_1)"/>
    <mask id="path-3-inside-2_0_1" fill="white">
        <path d="M16.3847 2.14286H13.9301V1.42857C13.9289 1.05004 13.756 0.687332 13.4494 0.419668C13.1428 0.152003 12.7274 0.00113052 12.2938 0H5.74833C5.31474 0.00113052 4.89927 0.152003 4.59268 0.419668C4.28608 0.687332 4.11326 1.05004 4.11197 1.42857V2.14286H1.65742C1.22383 2.14399 0.808365 2.29486 0.501768 2.56253C0.19517 2.83019 0.0223521 3.1929 0.0210571 3.57143V18.5714C0.0223521 18.95 0.19517 19.3127 0.501768 19.5803C0.808365 19.848 1.22383 19.9989 1.65742 20H9.02106V18.5714H1.65742V3.57143H4.11197V5.71429H13.9301V3.57143H16.3847V7.14286H18.0211V3.57143C18.0198 3.1929 17.8469 2.83019 17.5403 2.56253C17.2337 2.29486 16.8183 2.14399 16.3847 2.14286ZM12.2938 4.28571H5.74833V1.42857H12.2938V4.28571Z"/>
    </mask>
    <path d="M16.3847 2.14286H13.9301V1.42857C13.9289 1.05004 13.756 0.687332 13.4494 0.419668C13.1428 0.152003 12.7274 0.00113052 12.2938 0H5.74833C5.31474 0.00113052 4.89927 0.152003 4.59268 0.419668C4.28608 0.687332 4.11326 1.05004 4.11197 1.42857V2.14286H1.65742C1.22383 2.14399 0.808365 2.29486 0.501768 2.56253C0.19517 2.83019 0.0223521 3.1929 0.0210571 3.57143V18.5714C0.0223521 18.95 0.19517 19.3127 0.501768 19.5803C0.808365 19.848 1.22383 19.9989 1.65742 20H9.02106V18.5714H1.65742V3.57143H4.11197V5.71429H13.9301V3.57143H16.3847V7.14286H18.0211V3.57143C18.0198 3.1929 17.8469 2.83019 17.5403 2.56253C17.2337 2.29486 16.8183 2.14399 16.3847 2.14286ZM12.2938 4.28571H5.74833V1.42857H12.2938V4.28571Z" fill="white"/>
    <path d="M16.3847 2.14286L16.3899 0.142857H16.3847V2.14286ZM13.9301 2.14286H11.9301V4.14286H13.9301V2.14286ZM13.9301 1.42857H15.9302L15.9301 1.42173L13.9301 1.42857ZM12.2938 0L12.299 -2H12.2938V0ZM5.74833 0V-2.00001L5.74311 -1.99999L5.74833 0ZM4.11197 1.42857L2.11197 1.42173V1.42857H4.11197ZM4.11197 2.14286V4.14286H6.11197V2.14286H4.11197ZM1.65742 2.14286V0.14285L1.65221 0.142864L1.65742 2.14286ZM0.0210571 3.57143L-1.97894 3.56459V3.57143H0.0210571ZM0.0210571 18.5714H-1.97895L-1.97893 18.5783L0.0210571 18.5714ZM1.65742 20L1.65221 22H1.65742V20ZM9.02106 20V22H11.0211V20H9.02106ZM9.02106 18.5714H11.0211V16.5714H9.02106V18.5714ZM1.65742 18.5714H-0.342579V20.5714H1.65742V18.5714ZM1.65742 3.57143V1.57143H-0.342579V3.57143H1.65742ZM4.11197 3.57143H6.11197V1.57143H4.11197V3.57143ZM4.11197 5.71429H2.11197V7.71429H4.11197V5.71429ZM13.9301 5.71429V7.71429H15.9301V5.71429H13.9301ZM13.9301 3.57143V1.57143H11.9301V3.57143H13.9301ZM16.3847 3.57143H18.3847V1.57143H16.3847V3.57143ZM16.3847 7.14286H14.3847V9.14286H16.3847V7.14286ZM18.0211 7.14286V9.14286H20.0211V7.14286H18.0211ZM18.0211 3.57143L20.0211 3.57143L20.021 3.56459L18.0211 3.57143ZM12.2938 4.28571V6.28571H14.2938V4.28571H12.2938ZM5.74833 4.28571H3.74833V6.28571H5.74833V4.28571ZM5.74833 1.42857V-0.571429H3.74833V1.42857H5.74833ZM12.2938 1.42857H14.2938V-0.571429H12.2938V1.42857ZM16.3847 2.14286V0.142857H13.9301V2.14286V4.14286H16.3847V2.14286ZM13.9301 2.14286H15.9301V1.42857H13.9301H11.9301V2.14286H13.9301ZM13.9301 1.42857L15.9301 1.42173C15.9267 0.420982 15.4678 -0.473183 14.7648 -1.08697L13.4494 0.419668L12.1341 1.9263C12.0443 1.84785 11.931 1.6791 11.9302 1.43541L13.9301 1.42857ZM13.4494 0.419668L14.7648 -1.08697C14.0702 -1.69332 13.1803 -1.9977 12.299 -1.99999L12.2938 0L12.2886 1.99999C12.2763 1.99996 12.2592 1.998 12.2366 1.98977C12.2141 1.9816 12.1772 1.96389 12.1341 1.9263L13.4494 0.419668ZM12.2938 0V-2H5.74833V0V2H12.2938V0ZM5.74833 0L5.74311 -1.99999C4.86183 -1.9977 3.97191 -1.69332 3.27736 -1.08697L4.59268 0.419668L5.90799 1.9263C5.86494 1.96389 5.82804 1.9816 5.80555 1.98977C5.78288 1.998 5.76581 1.99996 5.75354 1.99999L5.74833 0ZM4.59268 0.419668L3.27736 -1.08697C2.5743 -0.473185 2.1154 0.420979 2.11198 1.42173L4.11197 1.42857L6.11195 1.43541C6.11112 1.6791 5.99786 1.84785 5.90799 1.9263L4.59268 0.419668ZM4.11197 1.42857H2.11197V2.14286H4.11197H6.11197V1.42857H4.11197ZM4.11197 2.14286V0.142857H1.65742V2.14286V4.14286H4.11197V2.14286ZM1.65742 2.14286L1.65221 0.142864C0.77092 0.145162 -0.118997 0.449537 -0.813548 1.05589L0.501768 2.56253L1.81708 4.06916C1.77403 4.10675 1.73713 4.12446 1.71464 4.13263C1.69197 4.14086 1.6749 4.14282 1.66264 4.14285L1.65742 2.14286ZM0.501768 2.56253L-0.813548 1.05589C-1.51661 1.66967 -1.97551 2.56384 -1.97893 3.56459L0.0210571 3.57143L2.02105 3.57827C2.02021 3.82196 1.90695 3.99071 1.81708 4.06916L0.501768 2.56253ZM0.0210571 3.57143H-1.97894V18.5714H0.0210571H2.02106V3.57143H0.0210571ZM0.0210571 18.5714L-1.97893 18.5783C-1.97551 19.579 -1.51661 20.4732 -0.813548 21.087L0.501768 19.5803L1.81708 18.0737C1.90695 18.1522 2.02021 18.3209 2.02105 18.5646L0.0210571 18.5714ZM0.501768 19.5803L-0.813548 21.087C-0.118996 21.6933 0.770923 21.9977 1.65221 22L1.65742 20L1.66264 18C1.6749 18 1.69197 18.002 1.71464 18.0102C1.73713 18.0184 1.77403 18.0361 1.81708 18.0737L0.501768 19.5803ZM1.65742 20V22H9.02106V20V18H1.65742V20ZM9.02106 20H11.0211V18.5714H9.02106H7.02106V20H9.02106ZM9.02106 18.5714V16.5714H1.65742V18.5714V20.5714H9.02106V18.5714ZM1.65742 18.5714H3.65742V3.57143H1.65742H-0.342579V18.5714H1.65742ZM1.65742 3.57143V5.57143H4.11197V3.57143V1.57143H1.65742V3.57143ZM4.11197 3.57143H2.11197V5.71429H4.11197H6.11197V3.57143H4.11197ZM4.11197 5.71429V7.71429H13.9301V5.71429V3.71429H4.11197V5.71429ZM13.9301 5.71429H15.9301V3.57143H13.9301H11.9301V5.71429H13.9301ZM13.9301 3.57143V5.57143H16.3847V3.57143V1.57143H13.9301V3.57143ZM16.3847 3.57143H14.3847V7.14286H16.3847H18.3847V3.57143H16.3847ZM16.3847 7.14286V9.14286H18.0211V7.14286V5.14286H16.3847V7.14286ZM18.0211 7.14286H20.0211V3.57143H18.0211H16.0211V7.14286H18.0211ZM18.0211 3.57143L20.021 3.56459C20.0176 2.56384 19.5587 1.66967 18.8557 1.05589L17.5403 2.56253L16.225 4.06916C16.1352 3.9907 16.0219 3.82195 16.0211 3.57827L18.0211 3.57143ZM17.5403 2.56253L18.8557 1.05589C18.1611 0.449537 17.2712 0.145162 16.3899 0.142864L16.3847 2.14286L16.3795 4.14285C16.3672 4.14282 16.3501 4.14086 16.3275 4.13263C16.305 4.12446 16.2681 4.10675 16.225 4.06916L17.5403 2.56253ZM12.2938 4.28571V2.28571H5.74833V4.28571V6.28571H12.2938V4.28571ZM5.74833 4.28571H7.74833V1.42857H5.74833H3.74833V4.28571H5.74833ZM5.74833 1.42857V3.42857H12.2938V1.42857V-0.571429H5.74833V1.42857ZM12.2938 1.42857H10.2938V4.28571H12.2938H14.2938V1.42857H12.2938Z" fill="white" mask="url(#path-3-inside-2_0_1)"/>
</svg>
