<svg width="21" height="17" viewBox="0 0 21 17" fill="none" xmlns="http://www.w3.org/2000/svg">
    <mask id="path-1-inside-1_198_294" fill="white">
        <path d="M0.771057 12.003C0.952445 12.003 1.12767 12.0688 1.26428 12.1881C1.40089 12.3075 1.48963 12.4723 1.51406 12.652L1.52106 12.754V14.254C1.521 14.444 1.44881 14.6269 1.31908 14.7658C1.18936 14.9046 1.01176 14.9891 0.822177 15.002C0.632596 15.015 0.445165 14.9555 0.297758 14.8356C0.150351 14.7157 0.0539585 14.5443 0.0280571 14.356L0.0210571 14.254V12.754C0.0210571 12.5551 0.100075 12.3643 0.240727 12.2237C0.381379 12.083 0.572145 12.003 0.771057 12.003ZM8.77106 6.004C8.95214 6.00398 9.12713 6.06947 9.26369 6.18839C9.40026 6.30731 9.48919 6.47163 9.51406 6.651L9.52106 6.753V11.913L8.28806 14.383C8.23806 14.4837 8.19472 14.5853 8.15806 14.688C8.08881 14.5897 8.04423 14.4762 8.02806 14.357L8.02106 14.254V6.752C8.02106 6.55309 8.10007 6.36233 8.24073 6.22167C8.38138 6.08102 8.57214 6.002 8.77106 6.002M12.2841 6.381C12.5421 5.85244 12.9809 5.43381 13.5211 5.201V3.751L13.5141 3.649C13.4882 3.46075 13.3918 3.28935 13.2444 3.16944C13.0969 3.04952 12.9095 2.99003 12.7199 3.00298C12.5304 3.01593 12.3528 3.10036 12.223 3.23921C12.0933 3.37806 12.0211 3.56098 12.0211 3.751V6.907L12.2841 6.381ZM16.7591 6.381L17.5151 7.896L17.5041 0.743004L17.4961 0.641003C17.4709 0.462801 17.3822 0.299715 17.2461 0.181886C17.1101 0.0640566 16.936 -0.000550676 16.7561 3.53619e-06C16.658 0.00143668 16.5612 0.0221886 16.4712 0.0610721C16.3811 0.0999556 16.2997 0.156207 16.2314 0.22661C16.1631 0.297012 16.1094 0.380184 16.0733 0.471366C16.0372 0.562548 16.0195 0.659951 16.0211 0.758003L16.0291 5.496C16.3221 5.717 16.5741 6.012 16.7591 6.381ZM4.77106 8.999C4.95229 8.99901 5.1274 9.06465 5.26399 9.18377C5.40058 9.30289 5.48941 9.46745 5.51406 9.647L5.52106 9.749V14.249C5.521 14.439 5.44881 14.6219 5.31908 14.7608C5.18936 14.8996 5.01176 14.9841 4.82218 14.997C4.6326 15.01 4.44517 14.9505 4.29776 14.8306C4.15035 14.7107 4.05396 14.5393 4.02806 14.351L4.02106 14.249V9.749C4.02106 9.55009 4.10007 9.35933 4.24073 9.21867C4.38138 9.07802 4.57214 8.999 4.77106 8.999ZM13.1781 6.829L9.18106 14.829C9.06639 15.0578 9.01218 15.3122 9.0236 15.5679C9.03502 15.8236 9.11168 16.0722 9.2463 16.2899C9.38091 16.5076 9.56899 16.6872 9.79265 16.8117C10.0163 16.9362 10.2681 17.0013 10.5241 17.001H18.5181C18.774 17.0013 19.0258 16.9362 19.2495 16.8117C19.4731 16.6872 19.6612 16.5076 19.7958 16.2899C19.9304 16.0722 20.0071 15.8236 20.0185 15.5679C20.0299 15.3122 19.9757 15.0578 19.8611 14.829L15.8641 6.829C15.3111 5.722 13.7311 5.722 13.1781 6.829ZM15.0211 9.495V12.497C15.0211 12.6296 14.9684 12.7568 14.8746 12.8506C14.7808 12.9443 14.6537 12.997 14.5211 12.997C14.3884 12.997 14.2613 12.9443 14.1675 12.8506C14.0737 12.7568 14.0211 12.6296 14.0211 12.497V9.495C14.0211 9.3624 14.0737 9.23522 14.1675 9.14145C14.2613 9.04768 14.3884 8.995 14.5211 8.995C14.6537 8.995 14.7808 9.04768 14.8746 9.14145C14.9684 9.23522 15.0211 9.3624 15.0211 9.495ZM14.5211 14.999C14.3884 14.999 14.2613 14.9463 14.1675 14.8526C14.0737 14.7588 14.0211 14.6316 14.0211 14.499C14.0211 14.3664 14.0737 14.2392 14.1675 14.1455C14.2613 14.0517 14.3884 13.999 14.5211 13.999C14.6537 13.999 14.7808 14.0517 14.8746 14.1455C14.9684 14.2392 15.0211 14.3664 15.0211 14.499C15.0211 14.6316 14.9684 14.7588 14.8746 14.8526C14.7808 14.9463 14.6537 14.999 14.5211 14.999Z"/>
    </mask>
    <path d="M0.771057 12.003C0.952445 12.003 1.12767 12.0688 1.26428 12.1881C1.40089 12.3075 1.48963 12.4723 1.51406 12.652L1.52106 12.754V14.254C1.521 14.444 1.44881 14.6269 1.31908 14.7658C1.18936 14.9046 1.01176 14.9891 0.822177 15.002C0.632596 15.015 0.445165 14.9555 0.297758 14.8356C0.150351 14.7157 0.0539585 14.5443 0.0280571 14.356L0.0210571 14.254V12.754C0.0210571 12.5551 0.100075 12.3643 0.240727 12.2237C0.381379 12.083 0.572145 12.003 0.771057 12.003ZM8.77106 6.004C8.95214 6.00398 9.12713 6.06947 9.26369 6.18839C9.40026 6.30731 9.48919 6.47163 9.51406 6.651L9.52106 6.753V11.913L8.28806 14.383C8.23806 14.4837 8.19472 14.5853 8.15806 14.688C8.08881 14.5897 8.04423 14.4762 8.02806 14.357L8.02106 14.254V6.752C8.02106 6.55309 8.10007 6.36233 8.24073 6.22167C8.38138 6.08102 8.57214 6.002 8.77106 6.002M12.2841 6.381C12.5421 5.85244 12.9809 5.43381 13.5211 5.201V3.751L13.5141 3.649C13.4882 3.46075 13.3918 3.28935 13.2444 3.16944C13.0969 3.04952 12.9095 2.99003 12.7199 3.00298C12.5304 3.01593 12.3528 3.10036 12.223 3.23921C12.0933 3.37806 12.0211 3.56098 12.0211 3.751V6.907L12.2841 6.381ZM16.7591 6.381L17.5151 7.896L17.5041 0.743004L17.4961 0.641003C17.4709 0.462801 17.3822 0.299715 17.2461 0.181886C17.1101 0.0640566 16.936 -0.000550676 16.7561 3.53619e-06C16.658 0.00143668 16.5612 0.0221886 16.4712 0.0610721C16.3811 0.0999556 16.2997 0.156207 16.2314 0.22661C16.1631 0.297012 16.1094 0.380184 16.0733 0.471366C16.0372 0.562548 16.0195 0.659951 16.0211 0.758003L16.0291 5.496C16.3221 5.717 16.5741 6.012 16.7591 6.381ZM4.77106 8.999C4.95229 8.99901 5.1274 9.06465 5.26399 9.18377C5.40058 9.30289 5.48941 9.46745 5.51406 9.647L5.52106 9.749V14.249C5.521 14.439 5.44881 14.6219 5.31908 14.7608C5.18936 14.8996 5.01176 14.9841 4.82218 14.997C4.6326 15.01 4.44517 14.9505 4.29776 14.8306C4.15035 14.7107 4.05396 14.5393 4.02806 14.351L4.02106 14.249V9.749C4.02106 9.55009 4.10007 9.35933 4.24073 9.21867C4.38138 9.07802 4.57214 8.999 4.77106 8.999ZM13.1781 6.829L9.18106 14.829C9.06639 15.0578 9.01218 15.3122 9.0236 15.5679C9.03502 15.8236 9.11168 16.0722 9.2463 16.2899C9.38091 16.5076 9.56899 16.6872 9.79265 16.8117C10.0163 16.9362 10.2681 17.0013 10.5241 17.001H18.5181C18.774 17.0013 19.0258 16.9362 19.2495 16.8117C19.4731 16.6872 19.6612 16.5076 19.7958 16.2899C19.9304 16.0722 20.0071 15.8236 20.0185 15.5679C20.0299 15.3122 19.9757 15.0578 19.8611 14.829L15.8641 6.829C15.3111 5.722 13.7311 5.722 13.1781 6.829ZM15.0211 9.495V12.497C15.0211 12.6296 14.9684 12.7568 14.8746 12.8506C14.7808 12.9443 14.6537 12.997 14.5211 12.997C14.3884 12.997 14.2613 12.9443 14.1675 12.8506C14.0737 12.7568 14.0211 12.6296 14.0211 12.497V9.495C14.0211 9.3624 14.0737 9.23522 14.1675 9.14145C14.2613 9.04768 14.3884 8.995 14.5211 8.995C14.6537 8.995 14.7808 9.04768 14.8746 9.14145C14.9684 9.23522 15.0211 9.3624 15.0211 9.495ZM14.5211 14.999C14.3884 14.999 14.2613 14.9463 14.1675 14.8526C14.0737 14.7588 14.0211 14.6316 14.0211 14.499C14.0211 14.3664 14.0737 14.2392 14.1675 14.1455C14.2613 14.0517 14.3884 13.999 14.5211 13.999C14.6537 13.999 14.7808 14.0517 14.8746 14.1455C14.9684 14.2392 15.0211 14.3664 15.0211 14.499C15.0211 14.6316 14.9684 14.7588 14.8746 14.8526C14.7808 14.9463 14.6537 14.999 14.5211 14.999Z" fill="white"/>
    <path d="M0.771057 12.003L0.771506 10.003H0.771057V12.003ZM1.51406 12.652L3.50936 12.5151L3.50481 12.4486L3.49584 12.3827L1.51406 12.652ZM1.52106 12.754H3.52106V12.6855L3.51636 12.6171L1.52106 12.754ZM1.52106 14.254L3.52106 14.2546V14.254H1.52106ZM0.0280571 14.356L-1.96725 14.4929L-1.96258 14.561L-1.95328 14.6286L0.0280571 14.356ZM0.0210571 14.254H-1.97894V14.3226L-1.97425 14.3909L0.0210571 14.254ZM9.51406 6.651L11.5094 6.51407L11.5046 6.44496L11.4951 6.37634L9.51406 6.651ZM9.52106 6.753H11.5211V6.68446L11.5164 6.61607L9.52106 6.753ZM9.52106 11.913L11.3105 12.8063L11.5211 12.3845V11.913H9.52106ZM8.28806 14.383L6.49862 13.4897L6.49684 13.4933L8.28806 14.383ZM8.15806 14.688L6.52289 15.8396L8.74411 18.9935L10.0415 15.3607L8.15806 14.688ZM8.02806 14.357L6.03266 14.4926L6.03721 14.5595L6.04622 14.626L8.02806 14.357ZM8.02106 14.254H6.02106V14.3219L6.02566 14.3896L8.02106 14.254ZM12.2841 6.381L14.0729 7.27543L14.0772 7.26689L14.0814 7.25832L12.2841 6.381ZM13.5211 5.201L14.3127 7.03767L15.5211 6.51685V5.201H13.5211ZM13.5211 3.751H15.5211V3.68246L15.5164 3.61407L13.5211 3.751ZM13.5141 3.649L15.5094 3.51207L15.5047 3.44399L15.4954 3.37639L13.5141 3.649ZM12.0211 3.751L10.0211 3.75039V3.751H12.0211ZM12.0211 6.907H10.0211L13.8099 7.80143L12.0211 6.907ZM16.7591 6.381L18.5486 5.48799L18.5469 5.48464L16.7591 6.381ZM17.5151 7.896L15.7255 8.78901L19.5151 7.89293L17.5151 7.896ZM17.5041 0.743004L19.5041 0.739928L19.5039 0.663163L19.4979 0.586633L17.5041 0.743004ZM17.4961 0.641003L19.4899 0.484632L19.4851 0.423017L19.4765 0.361818L17.4961 0.641003ZM16.7561 3.53619e-06L16.7499 -1.99999L16.7384 -1.99995L16.7268 -1.99978L16.7561 3.53619e-06ZM16.0211 0.758003L18.0211 0.754627L18.021 0.740122L18.0208 0.725618L16.0211 0.758003ZM16.0291 5.496L14.0291 5.49938L14.0307 6.49387L14.8247 7.09273L16.0291 5.496ZM4.77106 8.999L4.77114 6.999H4.77106V8.999ZM5.51406 9.647L7.50936 9.51007L7.50471 9.4423L7.49547 9.375L5.51406 9.647ZM5.52106 9.749H7.52106V9.68046L7.51636 9.61207L5.52106 9.749ZM5.52106 14.249L7.52106 14.2496V14.249H5.52106ZM4.02806 14.351L2.03275 14.4879L2.03742 14.556L2.04672 14.6236L4.02806 14.351ZM4.02106 14.249H2.02106V14.3175L2.02575 14.3859L4.02106 14.249ZM13.1781 6.829L14.9672 7.72289L14.9672 7.72278L13.1781 6.829ZM9.18106 14.829L10.9691 15.725L10.9702 15.7229L9.18106 14.829ZM10.5241 17.001V15.001L10.5215 15.001L10.5241 17.001ZM18.5181 17.001L18.5207 15.001H18.5181V17.001ZM19.8611 14.829L18.0719 15.7229L18.073 15.725L19.8611 14.829ZM15.8641 6.829L14.0749 7.72278L14.0749 7.72289L15.8641 6.829ZM0.771057 12.003L0.770609 14.003C0.468305 14.0029 0.176257 13.8933 -0.0514343 13.6944L1.26428 12.1881L2.58 10.6819C2.07909 10.2443 1.43658 10.0032 0.771506 10.003L0.771057 12.003ZM1.26428 12.1881L-0.0514343 13.6944C-0.279117 13.4956 -0.427013 13.2209 -0.467725 12.9213L1.51406 12.652L3.49584 12.3827C3.40627 11.7236 3.0809 11.1194 2.58 10.6819L1.26428 12.1881ZM1.51406 12.652L-0.48125 12.7889L-0.47425 12.8909L1.52106 12.754L3.51636 12.6171L3.50936 12.5151L1.51406 12.652ZM1.52106 12.754H-0.478943V14.254H1.52106H3.52106V12.754H1.52106ZM1.52106 14.254L-0.478943 14.2534C-0.478846 13.9367 -0.358535 13.6318 -0.142322 13.4004L1.31908 14.7658L2.78049 16.1312C3.25616 15.6221 3.52084 14.9514 3.52106 14.2546L1.52106 14.254ZM1.31908 14.7658L-0.142322 13.4004C0.0738904 13.169 0.369886 13.0283 0.685857 13.0067L0.822177 15.002L0.958497 16.9974C1.65363 16.9499 2.30482 16.6403 2.78049 16.1312L1.31908 14.7658ZM0.822177 15.002L0.685857 13.0067C1.00182 12.9851 1.31421 13.0842 1.55989 13.2841L0.297758 14.8356L-0.964372 16.387C-0.423878 16.8267 0.263367 17.0449 0.958497 16.9974L0.822177 15.002ZM0.297758 14.8356L1.55989 13.2841C1.80557 13.484 1.96622 13.7696 2.00939 14.0834L0.0280571 14.356L-1.95328 14.6286C-1.8583 15.3189 -1.50487 15.9473 -0.964372 16.387L0.297758 14.8356ZM0.0280571 14.356L2.02336 14.2191L2.01636 14.1171L0.0210571 14.254L-1.97425 14.3909L-1.96725 14.4929L0.0280571 14.356ZM0.0210571 14.254H2.02106V12.754H0.0210571H-1.97894V14.254H0.0210571ZM0.0210571 12.754H2.02106C2.02106 13.0855 1.88936 13.4035 1.65494 13.6379L0.240727 12.2237L-1.17349 10.8095C-1.68921 11.3252 -1.97894 12.0247 -1.97894 12.754H0.0210571ZM0.240727 12.2237L1.65494 13.6379C1.42536 13.8675 1.10938 14.003 0.771057 14.003V12.003V10.003C0.0349127 10.003 -0.662597 10.2986 -1.17349 10.8095L0.240727 12.2237ZM8.77106 6.004L8.77134 8.004C8.46953 8.00405 8.17789 7.89489 7.95028 7.69669L9.26369 6.18839L10.5771 4.6801C10.0764 4.24406 9.43476 4.00391 8.77077 4.004L8.77106 6.004ZM9.26369 6.18839L7.95028 7.69669C7.72267 7.49849 7.57446 7.22463 7.53301 6.92567L9.51406 6.651L11.4951 6.37634C11.4039 5.71864 11.0778 5.11614 10.5771 4.6801L9.26369 6.18839ZM9.51406 6.651L7.51875 6.78793L7.52575 6.88994L9.52106 6.753L11.5164 6.61607L11.5094 6.51407L9.51406 6.651ZM9.52106 6.753H7.52106V11.913H9.52106H11.5211V6.753H9.52106ZM9.52106 11.913L7.73162 11.0197L6.49862 13.4897L8.28806 14.383L10.0775 15.2763L11.3105 12.8063L9.52106 11.913ZM8.28806 14.383L6.49684 13.4933C6.41292 13.6623 6.3385 13.8363 6.27457 14.0153L8.15806 14.688L10.0415 15.3607C10.0509 15.3343 10.0632 15.3051 10.0793 15.2727L8.28806 14.383ZM8.15806 14.688L9.79322 13.5364C9.90863 13.7002 9.98294 13.8894 10.0099 14.0881L8.02806 14.357L6.04622 14.626C6.10552 15.0629 6.269 15.4791 6.52289 15.8396L8.15806 14.688ZM8.02806 14.357L10.0235 14.2214L10.0165 14.1184L8.02106 14.254L6.02566 14.3896L6.03266 14.4926L8.02806 14.357ZM8.02106 14.254H10.0211V6.752H8.02106H6.02106V14.254H8.02106ZM8.02106 6.752H10.0211C10.0211 7.08353 9.88936 7.40147 9.65494 7.63589L8.24073 6.22167L6.82651 4.80746C6.31079 5.32318 6.02106 6.02266 6.02106 6.752H8.02106ZM8.24073 6.22167L9.65494 7.63589C9.42052 7.87031 9.10258 8.002 8.77106 8.002V6.002V4.002C8.04171 4.002 7.34224 4.29173 6.82651 4.80746L8.24073 6.22167ZM12.2841 6.381L14.0814 7.25832C14.1296 7.15948 14.2117 7.0812 14.3127 7.03767L13.5211 5.201L12.7294 3.36434C11.7502 3.78641 10.9545 4.54539 10.4867 5.50369L12.2841 6.381ZM13.5211 5.201H15.5211V3.751H13.5211H11.5211V5.201H13.5211ZM13.5211 3.751L15.5164 3.61407L15.5094 3.51207L13.5141 3.649L11.5188 3.78594L11.5258 3.88794L13.5211 3.751ZM13.5141 3.649L15.4954 3.37639C15.4004 2.68614 15.047 2.05767 14.5065 1.61798L13.2444 3.16944L11.9822 4.7209C11.7365 4.52103 11.5759 4.23537 11.5327 3.92162L13.5141 3.649ZM13.2444 3.16944L14.5065 1.61798C13.966 1.17828 13.2787 0.960138 12.5836 1.00763L12.7199 3.00298L12.8563 4.99833C12.5403 5.01991 12.2279 4.92076 11.9822 4.7209L13.2444 3.16944ZM12.7199 3.00298L12.5836 1.00763C11.8885 1.05512 11.2373 1.3647 10.7616 1.87382L12.223 3.23921L13.6844 4.6046C13.4682 4.83602 13.1722 4.97674 12.8563 4.99833L12.7199 3.00298ZM12.223 3.23921L10.7616 1.87382C10.286 2.38294 10.0213 3.05363 10.0211 3.75039L12.0211 3.751L14.0211 3.75162C14.021 4.06833 13.9006 4.37319 13.6844 4.6046L12.223 3.23921ZM12.0211 3.751H10.0211V6.907H12.0211H14.0211V3.751H12.0211ZM12.0211 6.907L13.8099 7.80143L14.0729 7.27543L12.2841 6.381L10.4952 5.48658L10.2322 6.01258L12.0211 6.907ZM16.7591 6.381L14.9695 7.27401L15.7255 8.78901L17.5151 7.896L19.3046 7.003L18.5486 5.488L16.7591 6.381ZM17.5151 7.896L19.5151 7.89293L19.5041 0.739928L17.5041 0.743004L15.5041 0.746079L15.5151 7.89908L17.5151 7.896ZM17.5041 0.743004L19.4979 0.586633L19.4899 0.484632L17.4961 0.641003L15.5022 0.797374L15.5102 0.899374L17.5041 0.743004ZM17.4961 0.641003L19.4765 0.361818C19.3839 -0.294782 19.0568 -0.895681 18.5556 -1.32983L17.2461 0.181886L15.9367 1.6936C15.7075 1.49511 15.558 1.22038 15.5156 0.920188L17.4961 0.641003ZM17.2461 0.181886L18.5556 -1.32983C18.0544 -1.76398 17.413 -2.00203 16.7499 -1.99999L16.7561 3.53619e-06L16.7622 1.99999C16.4591 2.00093 16.1658 1.89209 15.9367 1.6936L17.2461 0.181886ZM16.7561 3.53619e-06L16.7268 -1.99978C16.3659 -1.99451 16.0095 -1.91812 15.6782 -1.77499L16.4712 0.0610721L17.2642 1.89714C17.1128 1.9625 16.9501 1.99738 16.7853 1.99979L16.7561 3.53619e-06ZM16.4712 0.0610721L15.6782 -1.77499C15.3468 -1.63186 15.0468 -1.42479 14.7956 -1.16565L16.2314 0.22661L17.6672 1.61887C17.5525 1.73721 17.4155 1.83177 17.2642 1.89714L16.4712 0.0610721ZM16.2314 0.22661L14.7956 -1.16565C14.5443 -0.906516 14.3466 -0.60037 14.2137 -0.264715L16.0733 0.471366L17.9329 1.20745C17.8723 1.36074 17.782 1.50054 17.6672 1.61887L16.2314 0.22661ZM16.0733 0.471366L14.2137 -0.264715C14.0808 0.0709329 14.0155 0.429472 14.0213 0.790389L16.0211 0.758003L18.0208 0.725618C18.0235 0.89043 17.9936 1.05416 17.9329 1.20745L16.0733 0.471366ZM16.0211 0.758003L14.0211 0.76138L14.0291 5.49938L16.0291 5.496L18.0291 5.49263L18.0211 0.754627L16.0211 0.758003ZM16.0291 5.496L14.8247 7.09273C14.8706 7.12735 14.9235 7.18221 14.9712 7.27737L16.7591 6.381L18.5469 5.48464C18.2246 4.8418 17.7735 4.30665 17.2334 3.89928L16.0291 5.496ZM4.77106 8.999L4.77097 10.999C4.46891 10.999 4.17707 10.8896 3.94942 10.6911L5.26399 9.18377L6.57855 7.67648C6.07773 7.23969 5.43568 6.99903 4.77114 6.999L4.77106 8.999ZM5.26399 9.18377L3.94942 10.6911C3.72177 10.4925 3.57372 10.2183 3.53264 9.919L5.51406 9.647L7.49547 9.375C7.4051 8.71664 7.07938 8.11327 6.57855 7.67648L5.26399 9.18377ZM5.51406 9.647L3.51875 9.78394L3.52575 9.88594L5.52106 9.749L7.51636 9.61207L7.50936 9.51007L5.51406 9.647ZM5.52106 9.749H3.52106V14.249H5.52106H7.52106V9.749H5.52106ZM5.52106 14.249L3.52106 14.2484C3.52115 13.9317 3.64146 13.6268 3.85768 13.3954L5.31908 14.7608L6.78049 16.1262C7.25616 15.6171 7.52084 14.9464 7.52106 14.2496L5.52106 14.249ZM5.31908 14.7608L3.85768 13.3954C4.0739 13.164 4.3699 13.0233 4.68586 13.0017L4.82218 14.997L4.9585 16.9924C5.65362 16.9449 6.30481 16.6353 6.78049 16.1262L5.31908 14.7608ZM4.82218 14.997L4.68586 13.0017C5.00182 12.9801 5.31421 13.0792 5.55989 13.2791L4.29776 14.8306L3.03563 16.382C3.57612 16.8217 4.26337 17.0399 4.9585 16.9924L4.82218 14.997ZM4.29776 14.8306L5.55989 13.2791C5.80556 13.479 5.96622 13.7646 6.00939 14.0784L4.02806 14.351L2.04672 14.6236C2.1417 15.3139 2.49514 15.9423 3.03563 16.382L4.29776 14.8306ZM4.02806 14.351L6.02336 14.2141L6.01636 14.1121L4.02106 14.249L2.02575 14.3859L2.03275 14.4879L4.02806 14.351ZM4.02106 14.249H6.02106V9.749H4.02106H2.02106V14.249H4.02106ZM4.02106 9.749H6.02106C6.02106 10.0805 5.88936 10.3985 5.65494 10.6329L4.24073 9.21867L2.82651 7.80446C2.31079 8.32019 2.02106 9.01966 2.02106 9.749H4.02106ZM4.24073 9.21867L5.65494 10.6329C5.42052 10.8673 5.10257 10.999 4.77106 10.999V8.999V6.999C4.04172 6.999 3.34224 7.28873 2.82651 7.80446L4.24073 9.21867ZM13.1781 6.829L11.3889 5.93511L7.39193 13.9351L9.18106 14.829L10.9702 15.7229L14.9672 7.72289L13.1781 6.829ZM9.18106 14.829L7.39299 13.933C7.12542 14.467 6.99895 15.0605 7.02559 15.6572L9.0236 15.5679L11.0216 15.4787C11.0254 15.5639 11.0073 15.6487 10.9691 15.725L9.18106 14.829ZM9.0236 15.5679L7.02559 15.6572C7.05224 16.2538 7.23112 16.8337 7.54522 17.3417L9.2463 16.2899L10.9474 15.238C10.9922 15.3106 11.0178 15.3935 11.0216 15.4787L9.0236 15.5679ZM9.2463 16.2899L7.54522 17.3417C7.85931 17.8497 8.29818 18.2688 8.82004 18.5593L9.79265 16.8117L10.7653 15.0641C10.8398 15.1056 10.9025 15.1655 10.9474 15.238L9.2463 16.2899ZM9.79265 16.8117L8.82004 18.5593C9.3419 18.8497 9.92941 19.0018 10.5267 19.001L10.5241 17.001L10.5215 15.001C10.6068 15.0009 10.6907 15.0226 10.7653 15.0641L9.79265 16.8117ZM10.5241 17.001V19.001H18.5181V17.001V15.001H10.5241V17.001ZM18.5181 17.001L18.5155 19.001C19.1127 19.0018 19.7002 18.8497 20.2221 18.5593L19.2495 16.8117L18.2769 15.0641C18.3514 15.0226 18.4353 15.0009 18.5207 15.001L18.5181 17.001ZM19.2495 16.8117L20.2221 18.5593C20.7439 18.2688 21.1828 17.8497 21.4969 17.3417L19.7958 16.2899L18.0947 15.238C18.1396 15.1655 18.2023 15.1056 18.2769 15.0641L19.2495 16.8117ZM19.7958 16.2899L21.4969 17.3417C21.811 16.8337 21.9899 16.2538 22.0165 15.6572L20.0185 15.5679L18.0205 15.4787C18.0243 15.3935 18.0499 15.3106 18.0947 15.238L19.7958 16.2899ZM20.0185 15.5679L22.0165 15.6572C22.0432 15.0605 21.9167 14.467 21.6491 13.933L19.8611 14.829L18.073 15.725C18.0348 15.6487 18.0167 15.5639 18.0205 15.4787L20.0185 15.5679ZM19.8611 14.829L21.6502 13.9351L17.6532 5.93511L15.8641 6.829L14.0749 7.72289L18.0719 15.7229L19.8611 14.829ZM15.8641 6.829L17.6532 5.93522C16.3634 3.35326 12.6787 3.35326 11.3889 5.93522L13.1781 6.829L14.9672 7.72278C14.7834 8.09074 14.2587 8.09074 14.0749 7.72278L15.8641 6.829ZM15.0211 9.495H13.0211V12.497H15.0211H17.0211V9.495H15.0211ZM15.0211 12.497H13.0211C13.0211 12.0992 13.1791 11.7177 13.4604 11.4363L14.8746 12.8506L16.2888 14.2648C16.7577 13.7959 17.0211 13.16 17.0211 12.497H15.0211ZM14.8746 12.8506L13.4604 11.4363C13.7417 11.155 14.1232 10.997 14.5211 10.997V12.997V14.997C15.1841 14.997 15.82 14.7336 16.2888 14.2648L14.8746 12.8506ZM14.5211 12.997V10.997C14.9189 10.997 15.3004 11.155 15.5817 11.4363L14.1675 12.8506L12.7533 14.2648C13.2221 14.7336 13.858 14.997 14.5211 14.997V12.997ZM14.1675 12.8506L15.5817 11.4363C15.863 11.7177 16.0211 12.0992 16.0211 12.497H14.0211H12.0211C12.0211 13.16 12.2844 13.7959 12.7533 14.2648L14.1675 12.8506ZM14.0211 12.497H16.0211V9.495H14.0211H12.0211V12.497H14.0211ZM14.0211 9.495H16.0211C16.0211 9.89282 15.863 10.2744 15.5817 10.5557L14.1675 9.14145L12.7533 7.72724C12.2844 8.19608 12.0211 8.83197 12.0211 9.495H14.0211ZM14.1675 9.14145L15.5817 10.5557C15.3004 10.837 14.9189 10.995 14.5211 10.995V8.995V6.995C13.858 6.995 13.2221 7.25839 12.7533 7.72724L14.1675 9.14145ZM14.5211 8.995V10.995C14.1232 10.995 13.7417 10.837 13.4604 10.5557L14.8746 9.14145L16.2888 7.72724C15.82 7.25839 15.1841 6.995 14.5211 6.995V8.995ZM14.8746 9.14145L13.4604 10.5557C13.1791 10.2744 13.0211 9.89282 13.0211 9.495H15.0211H17.0211C17.0211 8.83197 16.7577 8.19608 16.2888 7.72724L14.8746 9.14145ZM14.5211 14.999V12.999C14.9189 12.999 15.3004 13.157 15.5817 13.4383L14.1675 14.8526L12.7533 16.2668C13.2221 16.7356 13.858 16.999 14.5211 16.999V14.999ZM14.1675 14.8526L15.5817 13.4383C15.863 13.7197 16.0211 14.1012 16.0211 14.499H14.0211H12.0211C12.0211 15.162 12.2844 15.7979 12.7533 16.2668L14.1675 14.8526ZM14.0211 14.499H16.0211C16.0211 14.8968 15.863 15.2784 15.5817 15.5597L14.1675 14.1455L12.7533 12.7312C12.2845 13.2001 12.0211 13.836 12.0211 14.499H14.0211ZM14.1675 14.1455L15.5817 15.5597C15.3004 15.841 14.9189 15.999 14.5211 15.999V13.999V11.999C13.858 11.999 13.2221 12.2624 12.7533 12.7312L14.1675 14.1455ZM14.5211 13.999V15.999C14.1232 15.999 13.7417 15.841 13.4604 15.5597L14.8746 14.1455L16.2888 12.7312C15.82 12.2624 15.1841 11.999 14.5211 11.999V13.999ZM14.8746 14.1455L13.4604 15.5597C13.1791 15.2784 13.0211 14.8968 13.0211 14.499H15.0211H17.0211C17.0211 13.836 16.7577 13.2001 16.2888 12.7312L14.8746 14.1455ZM15.0211 14.499H13.0211C13.0211 14.1012 13.1791 13.7197 13.4604 13.4383L14.8746 14.8526L16.2888 16.2668C16.7577 15.7979 17.0211 15.162 17.0211 14.499H15.0211ZM14.8746 14.8526L13.4604 13.4383C13.7417 13.157 14.1232 12.999 14.5211 12.999V14.999V16.999C15.1841 16.999 15.82 16.7356 16.2888 16.2668L14.8746 14.8526Z" fill="white" mask="url(#path-1-inside-1_198_294)"/>
</svg>
