<svg width="50" height="51" viewBox="0 0 50 51" fill="none" xmlns="http://www.w3.org/2000/svg">
    <g clip-path="url(#clip0_163_219)">
        <path d="M34.7141 40.7852V42.3574H18.8567V40.7852H34.7141ZM27.5716 22.9287H34.7141V24.5H27.5716V31.6426H26.0003V24.5H20.5003L22.0716 22.9287H26.0003V18.9961L27.5716 17.4248V22.9287ZM47.429 17.9424L47.136 17.6494L36.4212 6.93555L36.1282 6.64258H29.7854V6.28613L29.5716 6.07227V5.07129H35.5179L37.6848 5.95605L48.1145 16.3857L49.0003 18.5527V50.085L46.0139 53.0713H11.1282L8.14285 50.0859V33.6426H9.71414V51.5H47.429V17.9424Z" fill="white" stroke="white" stroke-width="2"/>
        <path d="M24.2168 8.57715L24.2139 10.2783L17.5527 16.9424L16.4424 15.832L20.3506 11.9209L22.0557 10.2139H8.92871C7.24276 10.2139 5.62578 10.8841 4.43359 12.0762C3.24143 13.2683 2.57133 14.8853 2.57129 16.5713C2.57129 18.2573 3.2414 19.8742 4.43359 21.0664C5.62579 22.2586 7.24269 22.9287 8.92871 22.9287H9.71387V24.5H8.92871C6.82592 24.5 4.80916 23.6646 3.32227 22.1777C1.83537 20.6908 1 18.6741 1 16.5713C1.00004 14.4686 1.8354 12.4517 3.32227 10.9648C4.80915 9.47804 6.82599 8.64258 8.92871 8.64258H22.0566L16.4385 3.02441L17.5498 1.91309L24.2168 8.57715Z" fill="white" stroke="white" stroke-width="2"/>
    </g>
    <defs>
        <clipPath id="clip0_163_219">
            <rect width="50" height="50" fill="white" transform="translate(0 0.5)"/>
        </clipPath>
    </defs>
</svg>
