<svg width="21" height="20" viewBox="0 0 21 20" fill="none" xmlns="http://www.w3.org/2000/svg">
    <path d="M10.0211 19H10.022C10.193 19.0002 10.3622 18.994 10.5298 18.9854C10.3619 18.9936 10.1923 19 10.0211 19ZM10.0211 19C9.85345 19 9.68747 18.9948 9.52301 18.9863C9.68748 18.9942 9.85345 19 10.0211 19ZM10.0211 1C10.1843 1 10.3461 1.00366 10.5064 1.01172C10.3461 1.0042 10.1843 1 10.0211 1ZM10.0211 1C9.85745 1 9.69535 1.00417 9.53473 1.01172C9.69536 1.00363 9.85748 1 10.0211 1ZM18.9947 9.30762C19.0109 9.53498 19.0214 9.76562 19.0211 9.99902V10C19.0211 9.76608 19.0101 9.53541 18.9947 9.30762ZM1.03864 9.43652C1.02847 9.62237 1.02106 9.81012 1.02106 10L1.0318 9.53418C1.03336 9.50154 1.03674 9.46905 1.03864 9.43652Z" fill="white" stroke="white" stroke-width="2"/>
</svg>
