<svg width="20" height="21" viewBox="0 0 20 21" fill="none" xmlns="http://www.w3.org/2000/svg">
    <path d="M18.9883 10.7998C18.7454 15.7472 14.784 19.6377 10 19.6377C5.21601 19.6377 1.25457 15.7472 1.01172 10.7998V10.792C1.25107 15.6585 5.15464 19.5742 10 19.5742C14.8454 19.5742 18.7489 15.6585 18.9883 10.792V10.7998ZM10 0.998047C14.9383 0.998047 19 5.14414 19 10.3184C19 5.23459 15.0017 1.0625 10 1.0625C4.99827 1.0625 1 5.23459 1 10.3184C1 5.14414 5.06173 0.998047 10 0.998047Z" fill="white" stroke="white" stroke-width="2"/>
    <path d="M5.5 9.25391C5.74666 9.25391 5.99993 9.46927 6 9.80176C6 10.1343 5.74669 10.3496 5.5 10.3496C5.25331 10.3496 5 10.1343 5 9.80176C5.00007 9.46927 5.25334 9.25391 5.5 9.25391Z" fill="white" stroke="white" stroke-width="2"/>
    <path d="M10.5 9.25391C10.7467 9.25391 10.9999 9.46927 11 9.80176C11 10.1343 10.7467 10.3496 10.5 10.3496C10.2533 10.3496 10 10.1343 10 9.80176C10.0001 9.46927 10.2533 9.25391 10.5 9.25391Z" fill="white" stroke="white" stroke-width="2"/>
    <path d="M15.5 9.25391C15.7467 9.25391 15.9999 9.46927 16 9.80176C16 10.1343 15.7467 10.3496 15.5 10.3496C15.2533 10.3496 15 10.1343 15 9.80176C15.0001 9.46927 15.2533 9.25391 15.5 9.25391Z" fill="white" stroke="white" stroke-width="2"/>
</svg>
