<svg width="52" height="51" viewBox="0 0 52 51" fill="none" xmlns="http://www.w3.org/2000/svg">

    <path d="M37.0211 21.255L35.8596 20.0043L33.1078 22.9676C32.7151 22.4572 32.279 21.9875 31.805 21.5646L34.5568 18.6014L33.3953 17.3506L30.4299 20.5439C28.5538 19.3768 26.3724 18.9091 24.2242 19.2134C22.0761 19.5177 20.0812 20.5769 18.5491 22.2267C17.0171 23.8765 16.0335 26.0247 15.7509 28.338C15.4684 30.6513 15.9026 33.0003 16.9864 35.0206L14.0211 38.2139L15.1826 39.4647L17.9343 36.5014C18.327 37.0118 18.7631 37.4815 19.2371 37.9043L16.4853 40.8676L17.6468 42.1184L20.6122 38.9251C22.4883 40.0922 24.6697 40.5598 26.8179 40.2556C28.966 39.9513 30.9609 38.8921 32.493 37.2422C34.025 35.5924 35.0086 33.4442 35.2912 31.131C35.5738 28.8177 35.1395 26.4687 34.0557 24.4483L37.0211 21.255ZM25.5211 38.5801C23.8964 38.5801 22.3083 38.0613 20.9574 37.0893C19.6066 36.1174 18.5538 34.7359 17.932 33.1195C17.3103 31.5032 17.1477 29.7247 17.4646 28.0088C17.7816 26.2929 18.5639 24.7167 19.7127 23.4797C20.8615 22.2426 22.3251 21.4001 23.9185 21.0588C25.5119 20.7175 27.1636 20.8927 28.6645 21.5622C30.1655 22.2317 31.4484 23.3654 32.351 24.8201C33.2536 26.2748 33.7353 27.985 33.7353 29.7345C33.7332 32.0798 32.867 34.3283 31.327 35.9867C29.787 37.6451 27.699 38.5778 25.5211 38.5801Z" fill="white"/>

    <path d="M21.0211 27.6704H31.0211V29.1447H21.0211V27.6704ZM21.0211 31.3561H31.0211V32.8304H21.0211V31.3561Z" fill="white"/>
</svg>
