<svg width="30" height="30" viewBox="0 0 30 30" fill="none" xmlns="http://www.w3.org/2000/svg">
    <path d="M23.75 17.5065V13.3257C23.75 12.3034 23.75 11.7923 23.5597 11.3327C23.3694 10.873 23.0081 10.5116 22.2855 9.7887L16.3649 3.86545C15.7412 3.24156 15.4295 2.92963 15.0431 2.74479C14.9628 2.70635 14.8805 2.67222 14.7965 2.64257C14.3926 2.5 13.9518 2.5 13.0698 2.5C9.01352 2.5 6.98539 2.5 5.61166 3.60808C5.33414 3.83193 5.08135 4.08484 4.85759 4.36247C3.75 5.73679 3.75 7.76581 3.75 11.8238V17.5065C3.75 22.2226 3.75 24.5806 5.21446 26.0457C6.39332 27.2251 8.15054 27.4551 11.25 27.5M15 3.12528V3.75054C15 7.28761 15 9.05615 16.0984 10.155C17.1968 11.2538 18.9645 11.2538 22.5 11.2538H23.125" stroke="#121212" stroke-width="1.875" stroke-linecap="round" stroke-linejoin="round"/>
    <path d="M22.5 24.375L24.3066 25.5794C25.1621 26.1497 25.5899 26.4349 25.9199 26.2582C26.25 26.0816 26.25 25.5675 26.25 24.5394V22.9606C26.25 21.9325 26.25 21.4184 25.9199 21.2418C25.5899 21.0651 25.1621 21.3503 24.3066 21.9206L22.5 23.125M22.5 24.375V23.125M22.5 24.375C22.5 25.5432 22.5 26.1274 22.2487 26.5625C22.0842 26.8475 21.8475 27.0842 21.5625 27.2487C21.1274 27.5 20.5432 27.5 19.375 27.5H18.75C16.9823 27.5 16.0984 27.5 15.5491 26.9509C15 26.4016 15 25.5177 15 23.75C15 21.9823 15 21.0984 15.5491 20.5491C16.0984 20 16.9823 20 18.75 20H19.375C20.5432 20 21.1274 20 21.5625 20.2513C21.8475 20.4158 22.0842 20.6525 22.2487 20.9375C22.5 21.3726 22.5 21.9568 22.5 23.125" stroke="#121212" stroke-width="1.875" stroke-linejoin="round"/>
</svg>
