<svg width="30" height="30" viewBox="0 0 30 30" fill="none" xmlns="http://www.w3.org/2000/svg">
    <path d="M3.75 14.987V18.125C3.75 22.2497 3.75 24.3121 5.03141 25.5936C6.31281 26.875 8.37521 26.875 12.5 26.875H17.5C21.6247 26.875 23.6871 26.875 24.9686 25.5936C26.25 24.3121 26.25 22.2497 26.25 18.125V14.987C26.25 12.8854 26.25 11.8347 25.8051 10.9251C25.3603 10.0155 24.5309 9.37035 22.872 8.08014L20.372 6.13569C17.7914 4.12856 16.5011 3.125 15 3.125C13.4989 3.125 12.2086 4.12856 9.62803 6.13569L7.12801 8.08014C5.46916 9.37035 4.63974 10.0155 4.19488 10.9251C3.75 11.8347 3.75 12.8854 3.75 14.987Z" stroke="#121212" stroke-width="1.5" stroke-linecap="round" stroke-linejoin="round"/>
    <path d="M18.75 26.875V20.625C18.75 18.8572 18.75 17.9734 18.2009 17.4241C17.6516 16.875 16.7677 16.875 15 16.875C13.2323 16.875 12.3483 16.875 11.7992 17.4241C11.25 17.9734 11.25 18.8572 11.25 20.625V26.875" stroke="#121212" stroke-width="1.5" stroke-linecap="round" stroke-linejoin="round"/>
</svg>
