<svg width="30" height="30" viewBox="0 0 30 30" fill="none" xmlns="http://www.w3.org/2000/svg">
    <path d="M18.75 11.25C18.75 9.17894 17.0711 7.5 15 7.5C12.9289 7.5 11.25 9.17894 11.25 11.25C11.25 13.3211 12.9289 15 15 15C17.0711 15 18.75 13.3211 18.75 11.25Z" stroke="#E0E0E0" stroke-width="1.875" stroke-linecap="round" stroke-linejoin="round"/>
    <path d="M27.5 15C27.5 8.09644 21.9035 2.5 15 2.5C8.09644 2.5 2.5 8.09644 2.5 15C2.5 21.9035 8.09644 27.5 15 27.5C21.9035 27.5 27.5 21.9035 27.5 15Z" stroke="#E0E0E0" stroke-width="1.875" stroke-linecap="round" stroke-linejoin="round"/>
    <path d="M21.25 21.25C21.25 17.7983 18.4517 15 15 15C11.5482 15 8.75 17.7983 8.75 21.25" stroke="#E0E0E0" stroke-width="1.875" stroke-linecap="round" stroke-linejoin="round"/>
</svg>

