<svg width="37" height="37" viewBox="0 0 37 37" fill="none" xmlns="http://www.w3.org/2000/svg">
    <path d="M3.91666 17.0418C3.91666 12.2296 3.91666 9.82344 5.41164 8.32848C6.9066 6.8335 9.31274 6.8335 14.125 6.8335H15.5833C20.3955 6.8335 22.8016 6.8335 24.2967 8.32848C25.7917 9.82344 25.7917 12.2296 25.7917 17.0418V19.9585C25.7917 24.7707 25.7917 27.1768 24.2967 28.6719C22.8016 30.1668 20.3955 30.1668 15.5833 30.1668H14.125C9.31274 30.1668 6.9066 30.1668 5.41164 28.6719C3.91666 27.1768 3.91666 24.7707 3.91666 19.9585V17.0418Z" stroke="#121212" stroke-width="2.5"/>
    <path d="M25.7917 13.988L25.9753 13.8365C29.0608 11.2907 30.6036 10.0177 31.8434 10.6324C33.0833 11.247 33.0833 13.2847 33.0833 17.3601V19.6406C33.0833 23.7161 33.0833 25.7536 31.8434 26.3683C30.6036 26.9829 29.0608 25.71 25.9753 23.1641L25.7917 23.0126" stroke="#121212" stroke-width="2.5" stroke-linecap="round"/>
</svg>
