<svg width="56" height="49" viewBox="0 0 56 49" fill="none" xmlns="http://www.w3.org/2000/svg">
    <rect width="25.3865" height="24.5" fill="#03DAC6"/>
    <path d="M24.1825 5.45996V9.44996H7.68851V11.235H21.1796V14.805H7.68851V18.9H2.24854V5.45996H24.1825Z" fill="#121212"/>
    <path d="M15.4276 29.8135V32.9635H9.90063V29.8135H15.4276ZM10.053 35.2105H15.2753V45.5005H10.053V35.2105Z" fill="#E0E0E0"/>
    <rect x="25.3865" y="24.5" width="29.7385" height="24.5" fill="#03DAC6"/>
    <path d="M43.3021 29.96C45.2605 29.96 46.878 30.142 48.1546 30.506C49.4312 30.87 50.4321 31.367 51.1574 31.997C51.8828 32.627 52.3905 33.348 52.6806 34.16C52.9853 34.958 53.1376 35.798 53.1376 36.68C53.1376 37.562 52.9708 38.409 52.6371 39.221C52.3035 40.019 51.7522 40.733 50.9834 41.363C50.229 41.993 49.2208 42.49 47.9587 42.854C46.7112 43.218 45.159 43.4 43.3021 43.4H27.635V29.96H43.3021ZM33.075 39.2H43.0845C43.8969 39.2 44.586 39.151 45.1517 39.053C45.7175 38.941 46.1672 38.78 46.5008 38.57C46.849 38.36 47.0956 38.101 47.2407 37.793C47.4002 37.471 47.48 37.1 47.48 36.68C47.48 36.26 47.4002 35.896 47.2407 35.588C47.0956 35.266 46.849 35 46.5008 34.79C46.1672 34.58 45.7175 34.426 45.1517 34.328C44.586 34.216 43.8969 34.16 43.0845 34.16H33.075V39.2Z" fill="#121212"/>
    <path d="M40.1106 19.2149C37.8041 19.2149 35.8819 19.0329 34.3442 18.6689C32.821 18.3049 31.675 17.7239 30.9062 16.9259C30.1518 16.1279 29.7747 15.0779 29.7747 13.7759C29.7747 12.4739 30.1518 11.4239 30.9062 10.6259C31.675 9.81392 32.821 9.22592 34.3442 8.86192C35.8819 8.48392 37.8041 8.29492 40.1106 8.29492C42.4026 8.29492 44.303 8.48392 45.8117 8.86192C47.3349 9.22592 48.4736 9.81392 49.228 10.6259C49.9823 11.4239 50.3595 12.4739 50.3595 13.7759C50.3595 15.0779 49.9823 16.1279 49.228 16.9259C48.4736 17.7239 47.3349 18.3049 45.8117 18.6689C44.303 19.0329 42.4026 19.2149 40.1106 19.2149ZM40.1106 16.1699C41.1841 16.1699 42.0835 16.0859 42.8088 15.9179C43.5342 15.7359 44.0854 15.4699 44.4626 15.1199C44.8398 14.7559 45.0283 14.3079 45.0283 13.7759C45.0283 13.2439 44.8398 12.7959 44.4626 12.4319C44.0999 12.0679 43.5559 11.7949 42.8306 11.6129C42.1053 11.4309 41.1986 11.3399 40.1106 11.3399C39.0371 11.3399 38.1232 11.4309 37.3689 11.6129C36.629 11.7949 36.0633 12.0679 35.6716 12.4319C35.2944 12.7819 35.1058 13.2299 35.1058 13.7759C35.1058 14.3079 35.2944 14.7559 35.6716 15.1199C36.0488 15.4699 36.6073 15.7359 37.3471 15.9179C38.1014 16.0859 39.0226 16.1699 40.1106 16.1699Z" fill="#E0E0E0"/>
</svg>
